Coordinates
version=1
nRows=32
nColumns=11
inDegrees=yes

Units are S.I. units (second, meters, Newtons, ...)
If the header above contains a line with 'inDegrees', this indicates whether rotational values are in degrees (yes) or radians (no).

endheader
time	pelvis_tilt	pelvis_tx	pelvis_ty	hip_flexion_r	knee_angle_r	ankle_angle_r	hip_flexion_l	knee_angle_l	ankle_angle_l	lumbar_extension
     35.00382138	     -2.49893800	      0.12551377	      0.83675361	     -2.68556925	     -3.30367159	      2.06328334	     -2.01995004	      0.73458246	     -6.66227284	      1.56670699
     35.03715835	     -2.47919577	      0.12531221	      0.83678703	     -2.68907111	     -3.30866997	      2.06066640	     -2.02173879	      0.72546416	     -6.66377771	      1.58091350
     35.07049532	     -2.44812974	      0.12507274	      0.83684037	     -2.69881473	     -3.32068843	      2.04337759	     -2.01457774	      0.68017743	     -6.66705576	      1.57263520
     35.10383230	     -2.42897553	      0.12485425	      0.83686704	     -2.70328898	     -3.32161610	      2.04139082	     -2.01534207	      0.67522155	     -6.66640965	      1.58757937
     35.13716927	     -2.39775128	      0.12460475	      0.83691324	     -2.72195836	     -3.31577602	      2.02168376	     -2.01399684	      0.64333300	     -6.66448215	      1.58402423
     35.17050624	     -2.37901823	      0.12435325	      0.83693778	     -2.72546299	     -3.31721712	      2.01951559	     -2.01452887	      0.64360996	     -6.66470280	      1.59764245
     35.20384321	     -2.35850380	      0.12409083	      0.83696613	     -2.72972558	     -3.31947590	      2.01641632	     -2.01656061	      0.64402579	     -6.66661051	      1.61443357
     35.23718019	     -2.33819223	      0.12383138	      0.83699166	     -2.73488336	     -3.32204472	      2.01182867	     -2.02054695	      0.64839223	     -6.67013561	      1.63327924
     35.27051716	     -2.30415833	      0.12358527	      0.83703493	     -2.76560059	     -3.29840543	      1.96799485	     -2.06603871	      0.71139094	     -6.74704528	      1.63208783
     35.30385413	     -2.28573226	      0.12336275	      0.83704597	     -2.77169059	     -3.30071201	      1.96604707	     -2.08868277	      0.74641242	     -6.74145359	      1.64744251
     35.33719111	     -2.26789237	      0.12313685	      0.83705965	     -2.77859780	     -3.30086610	      1.96525448	     -2.09374846	      0.75009818	     -6.74428639	      1.66801401
     35.37052808	     -2.25471105	      0.12294907	      0.83706030	     -2.79381118	     -3.27351341	      1.95821038	     -2.12065852	      0.80621181	     -6.76467416	      1.68950491
     35.40386505	     -2.23674292	      0.12275583	      0.83707149	     -2.80170846	     -3.27720926	      1.95544132	     -2.12394375	      0.80664404	     -6.77085481	      1.70823230
     35.43720202	     -2.20688643	      0.12258843	      0.83710216	     -2.83177072	     -3.26085712	      1.93099628	     -2.16835247	      0.86483958	     -6.84900815	      1.71054290
     35.47053900	     -2.19309876	      0.12242010	      0.83710995	     -2.83568009	     -3.26410346	      1.93030459	     -2.17376242	      0.86765066	     -6.84833179	      1.72610075
     35.50387597	     -2.18070686	      0.12226665	      0.83712175	     -2.83914316	     -3.26774943	      1.92822709	     -2.17924994	      0.87567147	     -6.84861528	      1.73954406
     35.53721294	     -2.16861742	      0.12211104	      0.83713436	     -2.84285156	     -3.26529757	      1.91698485	     -2.19716488	      0.91190155	     -6.86157625	      1.75012684
     35.57054991	     -2.15704745	      0.12196749	      0.83714564	     -2.84806682	     -3.26784297	      1.91535560	     -2.19828351	      0.91332136	     -6.86513250	      1.76253841
     35.60388689	     -2.14712913	      0.12185296	      0.83715237	     -2.84969747	     -3.27289510	      1.90299091	     -2.21905568	      0.95046796	     -6.88568337	      1.77667454
     35.63722386	     -2.13607889	      0.12174481	      0.83715880	     -2.85232047	     -3.27600641	      1.90185011	     -2.22472140	      0.95165636	     -6.88852442	      1.79039911
     35.67056083	     -2.12402929	      0.12163885	      0.83716012	     -2.85672735	     -3.28068724	      1.89550969	     -2.24872088	      0.99297436	     -6.90624464	      1.80315598
     35.70389781	     -2.11193573	      0.12151835	      0.83716117	     -2.86312991	     -3.28337443	      1.89505461	     -2.25113326	      0.99070882	     -6.90989995	      1.81571941
     35.73723478	     -2.10114595	      0.12140633	      0.83716290	     -2.86725211	     -3.28386189	      1.89504864	     -2.25434865	      0.98967850	     -6.91245598	      1.82459502
     35.77057175	     -2.08953774	      0.12129978	      0.83717052	     -2.87261229	     -3.28484653	      1.89444788	     -2.25865308	      0.98770238	     -6.91453023	      1.83512897
     35.80390872	     -2.07661792	      0.12119954	      0.83718973	     -2.87854558	     -3.28713708	      1.89311794	     -2.26142480	      0.98332030	     -6.91674407	      1.84380708
     35.83724570	     -2.04681620	      0.12105537	      0.83723991	     -2.89915905	     -3.29137226	      1.87886060	     -2.26284996	      0.94410165	     -6.92736410	      1.82177613
     35.87058267	     -1.97395009	      0.12093385	      0.83733428	     -2.97493192	     -3.28155929	      1.85792617	     -2.32349458	      0.92496406	     -6.89303708	      1.75354739
     35.90391964	     -1.96319614	      0.12082423	      0.83735418	     -2.97781710	     -3.28694603	      1.85666446	     -2.32301028	      0.91779635	     -6.89663222	      1.76141536
     35.93725661	     -1.94670872	      0.12069484	      0.83738602	     -2.97774292	     -3.30597363	      1.84855560	     -2.31615923	      0.88781872	     -6.90483405	      1.75582761
     35.97059359	     -1.93640788	      0.12059602	      0.83740341	     -2.98130556	     -3.31216007	      1.84619356	     -2.31523426	      0.88044256	     -6.90487172	      1.76232304
     36.00393056	     -1.91946334	      0.12047914	      0.83743533	     -2.98559183	     -3.32599435	      1.83715634	     -2.30843252	      0.84654524	     -6.90448658	      1.75701614
     36.03726753	     -1.91378868	      0.12037151	      0.83744475	     -2.98509984	     -3.32581314	      1.83706209	     -2.30616327	      0.84727924	     -6.90427426	      1.75901033
